<svg width="154" height="157" viewBox="0 0 154 157" fill="none" xmlns="http://www.w3.org/2000/svg">
<path fill-rule="evenodd" clip-rule="evenodd" d="M149.775 113.051L37.4618 4.9502L0 156.266L149.775 113.051ZM45.9999 33.9999C47.6567 33.9999 48.9999 32.6567 48.9999 30.9999C48.9999 29.343 47.6567 27.9999 45.9999 27.9999C44.343 27.9999 42.9999 29.343 42.9999 30.9999C42.9999 32.6567 44.343 33.9999 45.9999 33.9999ZM120 107C120 108.657 118.657 110 117 110C115.343 110 114 108.657 114 107C114 105.343 115.343 104 117 104C118.657 104 120 105.343 120 107ZM69.9999 126C71.6567 126 72.9999 124.657 72.9999 123C72.9999 121.343 71.6567 120 69.9999 120C68.343 120 66.9999 121.343 66.9999 123C66.9999 124.657 68.343 126 69.9999 126ZM39.9999 62.9999C39.9999 64.6567 38.6567 65.9999 36.9999 65.9999C35.343 65.9999 33.9999 64.6567 33.9999 62.9999C33.9999 61.343 35.343 59.9999 36.9999 59.9999C38.6567 59.9999 39.9999 61.343 39.9999 62.9999ZM28.9999 103C30.6568 103 31.9999 101.657 31.9999 99.9999C31.9999 98.343 30.6568 96.9999 28.9999 96.9999C27.343 96.9999 25.9999 98.343 25.9999 99.9999C25.9999 101.657 27.343 103 28.9999 103ZM48.9999 121C48.9999 122.657 47.6567 124 45.9999 124C44.343 124 42.9999 122.657 42.9999 121C42.9999 119.343 44.343 118 45.9999 118C47.6567 118 48.9999 119.343 48.9999 121ZM82.9999 106C84.6567 106 85.9999 104.657 85.9999 103C85.9999 101.343 84.6567 99.9999 82.9999 99.9999C81.343 99.9999 79.9999 101.343 79.9999 103C79.9999 104.657 81.343 106 82.9999 106ZM68.9999 58.9999C68.9999 60.6567 67.6567 61.9999 65.9999 61.9999C64.343 61.9999 62.9999 60.6567 62.9999 58.9999C62.9999 57.343 64.343 55.9999 65.9999 55.9999C67.6567 55.9999 68.9999 57.343 68.9999 58.9999ZM49.9999 88.9999C51.6567 88.9999 52.9999 87.6567 52.9999 85.9999C52.9999 84.343 51.6567 82.9999 49.9999 82.9999C48.343 82.9999 46.9999 84.343 46.9999 85.9999C46.9999 87.6567 48.343 88.9999 49.9999 88.9999ZM95.9999 81.9999C95.9999 83.6567 94.6567 84.9999 92.9999 84.9999C91.343 84.9999 89.9999 83.6567 89.9999 81.9999C89.9999 80.343 91.343 78.9999 92.9999 78.9999C94.6567 78.9999 95.9999 80.343 95.9999 81.9999ZM18.9999 145C20.6568 145 21.9999 143.657 21.9999 142C21.9999 140.343 20.6568 139 18.9999 139C17.343 139 15.9999 140.343 15.9999 142C15.9999 143.657 17.343 145 18.9999 145Z" fill="#FF0000"/>
<path d="M93.9895 45.5L83.9895 63L87.4895 66.5L98.4895 53.5L118.49 76.5H153.49L131.99 57L102.49 48.5L125.99 45.5L131.99 34L98.4895 41.5V24L74.9895 0V30.5L93.9895 45.5Z" fill="#008423"/>
</svg>
