<?xml version="1.0" encoding="utf-8"?>
<!-- Uploaded to: SVG Repo, www.svgrepo.com, Generator: SVG Repo Mixer Tools -->
<svg width="800px" height="800px" viewBox="0 0 1024 1024" class="icon"  version="1.1" xmlns="http://www.w3.org/2000/svg"><path d="M444.416 219.136h61.44v61.44h-61.44zM505.856 219.136h61.44v61.44h-61.44zM382.976 280.576h61.44v61.44h-61.44z" fill="#004900" /><path d="M323.584 339.968h61.44v61.44h-61.44z" fill="#004900" /><path d="M382.976 339.968h61.44v61.44h-61.44zM444.416 280.576h61.44v61.44h-61.44zM505.856 280.576h61.44v61.44h-61.44z" fill="#004900" /><path d="M444.416 339.968h61.44v61.44h-61.44zM505.856 339.968h61.44v61.44h-61.44z" fill="#004900" /><path d="M565.248 280.576h61.44v61.44h-61.44z" fill="#004900" /><path d="M565.248 339.968h61.44v61.44h-61.44zM626.688 339.968h61.44v61.44h-61.44zM262.144 462.848h61.44v61.44h-61.44zM323.584 401.408h61.44v61.44h-61.44z" fill="#004900" /><path d="M382.976 401.408h61.44v61.44h-61.44zM323.584 462.848h61.44v61.44h-61.44z" fill="#004900" /><path d="M382.976 462.848h61.44v61.44h-61.44zM444.416 401.408h61.44v61.44h-61.44zM505.856 401.408h61.44v61.44h-61.44zM444.416 462.848h61.44v61.44h-61.44zM505.856 462.848h61.44v61.44h-61.44z" fill="#004900" /><path d="M565.248 401.408h61.44v61.44h-61.44zM626.688 401.408h61.44v61.44h-61.44zM565.248 462.848h61.44v61.44h-61.44zM626.688 462.848h61.44v61.44h-61.44z" fill="#004900" /><path d="M262.144 522.24h61.44v61.44h-61.44zM262.144 583.68h61.44v61.44h-61.44zM323.584 522.24h61.44v61.44h-61.44z" fill="#003000" /><path d="M382.976 522.24h61.44v61.44h-61.44zM323.584 583.68h61.44v61.44h-61.44z" fill="#003000" /><path d="M382.976 583.68h61.44v61.44h-61.44z" fill="#003000" /><path d="M444.416 522.24h61.44v61.44h-61.44zM505.856 522.24h61.44v61.44h-61.44zM444.416 583.68h61.44v61.44h-61.44zM505.856 583.68h61.44v61.44h-61.44z" fill="#003000" /><path d="M565.248 522.24h61.44v61.44h-61.44z" fill="#003000" /><path d="M626.688 522.24h61.44v61.44h-61.44z" fill="#003000" /><path d="M565.248 583.68h61.44v61.44h-61.44z" fill="#003000" /><path d="M626.688 583.68h61.44v61.44h-61.44z" fill="#003000" /><path d="M688.128 462.848h61.44v61.44h-61.44z" fill="#004900" /><path d="M688.128 522.24h61.44v61.44h-61.44zM688.128 583.68h61.44v61.44h-61.44zM323.584 645.12h61.44v61.44h-61.44z" fill="#003000" /><path d="M382.976 645.12h61.44v61.44h-61.44z" fill="#003000" /><path d="M382.976 704.512h61.44v61.44h-61.44z" fill="#003000" /><path d="M323.584 704.512h61.44v61.44h-61.44zM626.688 704.512h61.44v61.44h-61.44z" fill="#003000" /><path d="M444.416 645.12h61.44v61.44h-61.44zM505.856 645.12h61.44v61.44h-61.44z" fill="#003000" /><path d="M444.416 704.512h61.44v61.44h-61.44zM505.856 704.512h61.44v61.44h-61.44z" fill="#003000" /><path d="M565.248 645.12h61.44v61.44h-61.44z" fill="#003000" /><path d="M626.688 645.12h61.44v61.44h-61.44zM565.248 704.512h61.44v61.44h-61.44zM444.416 765.952h61.44v61.44h-61.44zM505.856 765.952h61.44v61.44h-61.44z" fill="#003000" /></svg>