<svg width="212" height="209" viewBox="0 0 212 209" fill="none" xmlns="http://www.w3.org/2000/svg">
<g opacity="0.8">
<path d="M48.1157 44.375L46 71L61.8678 51.6838L78.7934 70.4779L95.719 51.6838L110 71L106.298 44.375L88.843 28.1912L71.3884 0L66.6281 9.39706L70.3306 28.1912L48.1157 44.375Z" fill="#008423"/>
<path d="M61.8235 51L45.9412 70.0286L44.3529 119.714L11 190.543L18.4118 199L103.118 119.714L110 70.0286L95.7059 51L78.7647 70.0286L61.8235 51Z" fill="#FF0000"/>
</g>
<path d="M147.26 67.1393L123.828 81.8985L149.593 82.9536L144.316 108.488L170.293 110.735L162.965 134.422L182.839 114.888L185.622 90.5369L198.388 58.7464L187.664 60.6616L174.301 75.344L147.26 67.1393Z" fill="#008423"/>
<path d="M149.593 82.9536L124.263 81.575L82.4888 110.676L3.94521 126.67L1.5281 137.922L118.391 158.859L163.399 134.099L170.293 110.735L144.316 108.488L149.593 82.9536Z" fill="#FF0000"/>
</svg>
